<svg width="70" height="70" fill="none" xmlns="http://www.w3.org/2000/svg"><path d="M44.17 45.34h8.424C55.917 45.286 61 47.035 61 53.348 61 59.9 54.729 61 52.592 61H24.46C17.939 61 9 59.677 9 48.442V24.605h52V36.35m-11.695 3.789L44.88 43.83a2.079 2.079 0 0 0-.71 1.508 2.08 2.08 0 0 0 .715 1.62l4.42 3.595M9.015 24.577l2.395-5.98c1.945-4.652 2.917-6.976 4.888-8.284C18.27 9.005 20.796 9 25.848 9H44.1c5.054 0 7.582 0 9.552 1.31 1.971 1.308 2.941 3.633 4.888 8.281L61 24.587m-26.096.016v-15.6m-5.2 26h10.4" stroke="#000" stroke-width="3" stroke-linecap="round" stroke-linejoin="round"/></svg>