<svg width="70" height="70" fill="none" xmlns="http://www.w3.org/2000/svg"><path d="m61.25 21.875-11.667 5.833m0 0-1.458.73L35 35m14.583-7.292v10.209m0-10.209L21.875 13.125M35 35 8.75 21.875M35 35v27.708M45.436 9.864l5.833 3.063c6.274 3.293 9.412 4.938 11.157 7.898 1.74 2.957 1.74 6.641 1.74 14.006v.341c0 7.362 0 11.045-1.74 14.003-1.745 2.96-4.883 4.608-11.157 7.901l-5.833 3.06c-5.122 2.686-7.683 4.03-10.436 4.03s-5.314-1.341-10.436-4.03l-5.833-3.063c-6.274-3.293-9.412-4.938-11.156-7.898-1.742-2.958-1.742-6.641-1.742-14v-.341c0-7.365 0-11.049 1.742-14.006 1.744-2.96 4.882-4.608 11.156-7.898l5.833-3.063C29.686 7.177 32.247 5.833 35 5.833s5.314 1.342 10.436 4.031Z" stroke="#000" stroke-width="3" stroke-linecap="round"/></svg>