<svg width="48" height="48" fill="none" xmlns="http://www.w3.org/2000/svg"><rect x=".5" y=".5" width="47" height="47" rx="23.5" fill="#fff"/><rect x=".5" y=".5" width="47" height="47" rx="23.5" stroke="#E9E9E9"/><path d="M15.782 26.933c.538 2.691.807 4.036 1.696 4.902.165.16.341.305.53.435 1.025.702 2.397.702 5.14.702h1.706c2.743 0 4.114 0 5.138-.701.19-.13.367-.276.53-.436.89-.866 1.159-2.21 1.697-4.9.772-3.862 1.158-5.793.27-7.16a4.006 4.006 0 0 0-.562-.685c-1.167-1.14-3.135-1.14-7.073-1.14H23.15c-3.94 0-5.909 0-7.076 1.14a4 4 0 0 0-.56.684c-.89 1.368-.503 3.299.27 7.16Z" stroke="#363636" stroke-width="2"/><path d="M27.004 22.958a1.001 1.001 0 1 0 0-2.003 1.001 1.001 0 0 0 0 2.003Zm-6.008 0a1.001 1.001 0 1 0 0-2.003 1.001 1.001 0 0 0 0 2.003Z" fill="#363636"/><path d="M20.995 17.95v-1a3.004 3.004 0 1 1 6.009 0v1" stroke="#363636" stroke-width="2" stroke-linecap="round"/></svg>