<svg width="234" height="38" fill="none" xmlns="http://www.w3.org/2000/svg"><path d="M18.037 37.263V27.45H16.18v9.832c-3.796-.262-7.187-1.494-10.054-3.916C2.371 30.197.312 26.139.01 21.193c.606 0 1.15-.02 1.716 0 2.362.121 4.502 1.01 6.581 2.039 1.393.686 2.786 1.353 4.3 1.756 1.696.445 3.412.687 5.169.606 2.24-.08 4.38-.626 6.42-1.554 1.413-.646 2.826-1.353 4.26-1.938 1.776-.727 3.633-1.03 5.551-.97.06 0 .121 0 .162.02-.101 8.116-7.187 15.788-16.13 16.11Zm5.633-22.328c-.06.403.162.666.404.928-.323.323-.566.687-.566 1.171-.02.727.384 1.353 1.03 1.615.666.283 1.433.142 1.918-.363.505-.525.666-1.272.323-1.918-.404-.828-1.07-1.353-2.019-1.433-.363-.02-.727 0-1.09 0Zm-16.03 0c-.06.403.161.666.404.928-.323.323-.566.687-.566 1.171-.02.727.384 1.353 1.03 1.615.666.283 1.433.142 1.918-.363.505-.525.666-1.272.323-1.918-.404-.828-1.07-1.353-2.02-1.433-.362-.02-.726 0-1.09 0Z" fill="#272727"/><path d="M32.613 13.077c-.504-.504-1.09-.787-1.796-.807-.95-.02-1.918 0-2.887 0 .12.222.303.282.525.282.706-.02 1.433-.04 2.14-.02.747.02.807-.12 2.018.545Z" fill="#fff"/><path d="M26.355 9.504c0-.384-.02-.787-.1-1.17-.284-1.555-.93-2.969-1.96-4.18C22.096 1.59 19.33.44 15.959.823a8.836 8.836 0 0 0-4.966 2.24c-2.02 1.818-3.15 4.059-3.13 6.804v3.836h2.383V13.4c0-1.11 0-2.24.02-3.35 0-.425.04-.849.1-1.253.829-4.542 5.674-6.823 9.449-5.087 2.443 1.13 3.856 3.048 4.118 5.733.122 1.252.04 2.524.061 3.776v.484h2.342c0-.08.02-.141.02-.181V9.503Zm-.626-1.575c-.525-1.372-1.19-2.584-2.019-3.573-1.13-1.353-2.584-2.301-4.4-2.725a9.786 9.786 0 0 0-2.363-.222c-1.05.02-2.018.181-2.887.484-.02 0-.04.02-.04.02H14a7.599 7.599 0 0 0-2.766 1.676c-1.17 1.09-2.08 2.564-2.746 4.32.445-3.33 3.937-6.783 8.5-6.864a8.634 8.634 0 0 1 2.967.485 9.31 9.31 0 0 1 3.533 2.22c1.232 1.151 2.04 2.645 2.241 4.18Z" fill="#272727"/><path d="M16.18 23.535V12.027h-4.845c.14 1.11.02 2.1-.323 2.827 1.312 1.433 1.009 3.089.02 4.078-.929.949-2.726 1.09-3.816.1-.505-.463-.868-1.009-.949-1.695-.12-.99.162-1.837.909-2.503-.666-.868-.263-1.858-.424-2.806H3.32c-.868.02-1.595.363-2.2 1.009-.788.868-1.09 1.898-1.111 3.028-.02.949 0 1.878 0 2.827 0 .1.02.201.02.343h.505c.182 0 .343-.02.525-.02 2.362 0 4.582.605 6.702 1.615 1.191.565 2.362 1.15 3.553 1.655a13.71 13.71 0 0 0 4.846 1.13c.02-.04.02-.06.02-.08ZM5.662 12.532c-.182 0-.364 0-.545-.02-.545-.02-1.07-.02-1.595 0h-.464c-.202 0-.364.02-.586.08a6.74 6.74 0 0 0-.97.445c.183-.182.384-.343.607-.464.14-.081.302-.162.444-.202.161-.06.323-.101.484-.121.081-.02.162-.02.263-.02.484-.02.949-.02 1.433-.02h1.454c-.122.262-.283.322-.525.322Zm10.114-.02h-3.977a.138.138 0 0 1-.141-.141c0-.081.06-.142.14-.142h3.978c.08 0 .141.061.141.142-.02.1-.06.141-.141.141Zm18.432 3.392c0-.666-.162-1.313-.465-1.918-.464-.909-1.13-1.615-2.18-1.878a1.719 1.719 0 0 0-.464-.08h-3.675c-.141.948.243 1.938-.363 2.806 1.332 1.372 1.11 3.15-.101 4.219-1.01.888-2.705.888-3.715-.04-.504-.465-.848-1.05-.928-1.757-.101-.949.181-1.776.888-2.422-.646-.868-.242-1.878-.404-2.806h-4.784v11.608c1.736-.142 3.391-.525 4.946-1.212 1.292-.565 2.564-1.231 3.856-1.796 2.22-.99 4.542-1.535 7.005-1.393h.363c.02-1.151.02-2.241.02-3.331ZM18.319 12.39c0-.08.061-.141.142-.141h3.977c.08 0 .141.06.141.14 0 .082-.06.142-.141.142H18.46a.138.138 0 0 1-.142-.141ZM63.13 27.807l-.175 6.547H44.09v-.752h.652c.953 0 1.606-.126 1.982-.351.376-.251.602-.602.702-1.13.1-.501.15-1.68.15-3.537V17.697c0-1.781-.05-2.91-.15-3.437-.1-.502-.326-.878-.652-1.053-.326-.201-1.053-.302-2.182-.302h-.502v-.752h10.662v.752h-.979c-1.104 0-1.806.1-2.157.276-.351.176-.577.527-.678 1.004-.125.502-.175 1.656-.175 3.512v11.64c0 1.606.05 2.61.125 3.01.076.402.326.728.703.954.376.226 1.229.326 2.508.326h1.681c1.355 0 2.383-.126 3.036-.351.652-.251 1.28-.753 1.881-1.58.602-.804 1.13-2.083 1.63-3.839h.804v-.05Zm22.804-15.679h7.425v.752c-.978.076-1.705.276-2.207.653-.477.376-.778.802-.903 1.279-.1.477-.176 1.38-.176 2.734v7.401c0 1.881-.075 3.286-.226 4.215-.15.928-.577 1.83-1.279 2.709-.703.878-1.706 1.58-2.985 2.107-1.28.527-2.76.778-4.416.778-1.981 0-3.662-.326-5.017-1.004-1.38-.677-2.358-1.53-2.935-2.609-.577-1.053-.878-2.483-.878-4.29l.025-2.282v-6.924c0-1.781-.05-2.91-.15-3.412-.1-.502-.327-.878-.653-1.054-.326-.2-1.053-.3-2.182-.3h-.502v-.753H79.01v.752h-.452c-1.103 0-1.806.1-2.157.276-.351.176-.577.527-.677 1.004-.126.502-.176 1.655-.176 3.512v6.999c0 2.433.1 4.14.326 5.168.226 1.028.853 1.906 1.882 2.659 1.028.753 2.408 1.129 4.139 1.129 1.355 0 2.584-.25 3.688-.753 1.103-.501 1.931-1.154 2.483-1.906.552-.753.878-1.53 1.004-2.333.125-.803.175-2.057.175-3.788V17.27c0-1.254-.075-2.132-.226-2.634a2.094 2.094 0 0 0-.928-1.204c-.476-.3-1.204-.476-2.232-.552v-.752h.075Zm28.097 9.884 5.745 6.999c2.057 2.484 3.362 3.863 3.914 4.164.551.276 1.279.427 2.182.427v.752h-11.013v-.752c1.104 0 1.882-.1 2.308-.301.452-.2.652-.527.652-1.004 0-.276-.1-.602-.301-.928-.2-.326-.727-1.003-1.555-2.032l-3.964-4.892-3.487 4.24c-.828 1.003-1.354 1.706-1.605 2.107-.251.401-.377.778-.377 1.154 0 1.104.853 1.68 2.559 1.68v.754h-8.605v-.753c.929-.05 1.757-.25 2.509-.602.753-.351 1.43-.853 2.082-1.48.628-.627 1.531-1.681 2.71-3.186l3.713-4.466-5.846-7.024-1.881-2.258a5.397 5.397 0 0 0-1.305-1.204c-.501-.326-1.154-.476-1.982-.476v-.753h9.483v.752h-.301c-1.254 0-1.856.352-1.856 1.03 0 .275.1.551.276.877.2.301.627.878 1.329 1.706l4.089 4.942 3.688-4.616c.778-.978 1.254-1.58 1.43-1.856.176-.276.251-.527.251-.803 0-.452-.226-.778-.652-.979-.427-.175-1.179-.275-2.233-.275v-.753h8.329v.753c-1.43 0-2.609.426-3.588 1.254-.978.828-2.032 1.982-3.211 3.462l-3.487 4.34Zm29.678.376c2.534.176 4.39.803 5.619 1.882 1.23 1.078 1.832 2.408 1.832 4.014 0 1.404-.427 2.608-1.255 3.612-.828 1.003-1.881 1.68-3.186 1.982-1.304.3-3.035.477-5.193.477h-8.705v-.753h.853c.954 0 1.606-.126 1.982-.351.376-.251.602-.602.702-1.13.101-.501.151-1.68.151-3.536V17.772c0-1.806-.05-2.96-.151-3.487-.1-.527-.326-.878-.652-1.079-.326-.2-1.053-.3-2.182-.3h-.427v-.753l3.663-.1 4.164-.126c6.071 0 9.107 1.756 9.107 5.243 0 1.43-.527 2.61-1.556 3.462-1.078.853-2.659 1.43-4.766 1.756Zm-4.014-.326c.276 0 .502.025.677.025 2.358 0 3.964-.376 4.842-1.104.853-.752 1.305-1.956 1.305-3.612 0-1.154-.176-2.057-.502-2.684a3.438 3.438 0 0 0-1.53-1.455c-.678-.352-1.832-.527-3.462-.527-.427 0-.853.025-1.305.05v9.307h-.025Zm0 .803v4.942c0 2.107.05 3.437.125 4.014.076.577.276 1.003.603 1.304.326.301 1.003.452 1.981.452 1.756 0 3.061-.452 3.939-1.355.878-.903 1.304-2.233 1.304-4.039 0-1.831-.501-3.186-1.48-4.064-.978-.878-2.734-1.304-5.218-1.304-.401.025-.802.025-1.254.05Zm32.562 3.286h-8.429l-.577 1.405c-.853 2.032-1.279 3.387-1.279 3.989 0 .677.225 1.179.677 1.505.452.351 1.029.527 1.756.527v.752h-6.623v-.752c.979-.15 1.706-.502 2.208-1.029.477-.552 1.053-1.68 1.731-3.412.05-.175.326-.802.778-1.906l6.447-15.428h.627l7.426 17.636 1.003 2.332c.226.527.527.929.928 1.23.377.3.979.476 1.756.577v.752h-8.73v-.752c1.079 0 1.806-.075 2.183-.226.376-.15.577-.477.577-.953 0-.251-.251-.954-.753-2.158l-1.706-4.089Zm-.276-.752-3.938-9.483-3.914 9.483h7.852Zm28.799-.552h9.583v.777c-1.053 0-1.781.1-2.157.326-.376.201-.627.577-.753 1.054-.125.502-.175 1.706-.175 3.612v2.359a3.733 3.733 0 0 0-.703-.076c-.853 0-1.956.251-3.311.778-1.856.703-3.587 1.054-5.168 1.054-3.186 0-5.82-1.054-7.927-3.136-2.108-2.082-3.161-4.741-3.161-7.953 0-3.186 1.003-5.97 3.01-8.353 2.007-2.384 4.742-3.588 8.203-3.588 2.961 0 5.419 1.104 7.376 3.287.351-.753.602-1.58.677-2.484h.778v7.426h-.778c-.326-2.283-1.179-4.09-2.609-5.42-1.405-1.329-3.136-2.006-5.142-2.006-2.083 0-3.914.778-5.469 2.333-1.556 1.555-2.333 4.315-2.333 8.254 0 3.938.752 6.748 2.232 8.378 1.506 1.656 3.362 2.459 5.57 2.459 1.128 0 2.157-.226 3.085-.702.928-.477 1.556-1.029 1.907-1.706.326-.678.502-1.505.502-2.534 0-1.18-.076-1.982-.226-2.383-.151-.402-.402-.678-.728-.803-.326-.126-.928-.2-1.806-.2h-.527v-.753h.05Zm18.364 9.257v-7.15h.827c.929 4.64 3.136 6.974 6.598 6.974 1.556 0 2.76-.452 3.638-1.33.853-.878 1.279-1.881 1.279-2.985 0-1.104-.376-2.057-1.129-2.81-.752-.752-2.132-1.53-4.139-2.383-1.781-.753-3.136-1.43-4.039-2.007a6.473 6.473 0 0 1-2.132-2.233 6.083 6.083 0 0 1-.753-2.935c0-1.58.552-2.91 1.656-3.963 1.104-1.054 2.483-1.58 4.164-1.58.928 0 1.831.15 2.659.45.828.302 1.681.929 2.559 1.907.502-.602.778-1.254.853-1.956h.728v5.82h-.728c-.426-1.706-1.154-3.036-2.207-3.989-1.054-.978-2.283-1.455-3.663-1.455-1.33 0-2.283.351-2.91 1.079-.627.727-.928 1.505-.928 2.358 0 1.028.376 1.906 1.154 2.609.752.727 2.157 1.53 4.139 2.433 1.906.853 3.311 1.53 4.164 2.057.878.527 1.556 1.23 2.082 2.158.527.928.778 1.982.778 3.186 0 1.906-.627 3.437-1.906 4.64-1.28 1.18-2.961 1.782-5.068 1.782-2.433 0-4.465-.928-6.096-2.81-.351.502-.627 1.23-.803 2.158h-.777v-.025Z" fill="#272727"/></svg>