<svg width="70" height="70" fill="none" xmlns="http://www.w3.org/2000/svg"><path d="M5.833 13.125h19.708a8.75 8.75 0 0 1 6.19 2.564l9.102 9.103m-26.25 14.583h-8.75m18.959-17.5 5.833 5.833a4.125 4.125 0 0 1-5.833 5.834l-4.375-4.375a7.137 7.137 0 0 1-9.325.662l-.884-.662" stroke="#000" stroke-width="3" stroke-linecap="round" stroke-linejoin="round"/><path d="M14.584 32.083v13.125c0 5.501 0 8.249 1.709 9.958 1.709 1.71 4.456 1.71 9.957 1.71H52.5c5.501 0 8.248 0 9.958-1.71 1.709-1.71 1.709-4.457 1.709-9.958v-8.75c0-5.5 0-8.248-1.71-9.957-1.709-1.71-4.456-1.71-9.957-1.71H27.71" stroke="#000" stroke-width="3" stroke-linecap="round" stroke-linejoin="round"/><path d="M44.48 40.833a5.104 5.104 0 1 1-10.209 0 5.104 5.104 0 0 1 10.208 0Z" stroke="#000" stroke-width="3" stroke-linecap="round" stroke-linejoin="round"/></svg>