<svg width="60" height="60" fill="none" xmlns="http://www.w3.org/2000/svg"><rect x="1" y="1" width="58" height="58" rx="14" stroke="#F0F0F0" stroke-width="2"/><path d="M18.75 27.5v11.25a2.5 2.5 0 0 0 2.5 2.5h17.5a2.5 2.5 0 0 0 2.5-2.5V27.5" stroke="#313131" stroke-width="2"/><path d="M33.541 41.25v-7.5a2.5 2.5 0 0 0-2.5-2.5h-2.5a2.5 2.5 0 0 0-2.5 2.5v7.5" stroke="#313131" stroke-width="2" stroke-miterlimit="16"/><path d="m42.273 26.705-2.118-7.411a.75.75 0 0 0-.721-.544h-5.059l.594 7.13a.724.724 0 0 0 .347.563c.488.29 1.44.828 2.184 1.057 1.27.391 3.125.25 4.182.12a.713.713 0 0 0 .59-.915Z" stroke="#313131" stroke-width="2"/><path d="M32.5 27.5c.71-.219 1.61-.718 2.113-1.015a.725.725 0 0 0 .35-.686l-.588-7.049h-8.75l-.587 7.049a.725.725 0 0 0 .35.687c.502.296 1.402.795 2.112 1.014 1.866.575 3.134.575 5 0Z" stroke="#313131" stroke-width="2"/><path d="m19.845 19.294-2.117 7.412a.711.711 0 0 0 .59.913c1.056.131 2.912.271 4.182-.119.744-.229 1.698-.766 2.184-1.056a.725.725 0 0 0 .347-.564l.594-7.13h-5.059a.75.75 0 0 0-.72.544Z" stroke="#313131" stroke-width="2"/></svg>