<svg width="50" height="50" fill="none" xmlns="http://www.w3.org/2000/svg"><rect width="50" height="50" rx="25" fill="#F2F2F2"/><path d="m33.75 17.417-.723 11.695C32.842 32.1 32.75 33.596 32 34.67c-.37.531-.847.98-1.4 1.316-1.117.682-2.613.682-5.607.682-2.998 0-4.497 0-5.616-.683a4.665 4.665 0 0 1-1.4-1.318c-.75-1.076-.84-2.573-1.02-5.565l-.707-11.684m-1.75 0h21m-5.768 0-.797-1.643c-.528-1.092-.793-1.637-1.25-1.977a2.336 2.336 0 0 0-.32-.201c-.505-.263-1.112-.263-2.324-.263-1.244 0-1.866 0-2.38.273a2.346 2.346 0 0 0-.325.21c-.46.354-.718.92-1.234 2.05l-.707 1.55" stroke="#2C2C2C" stroke-width="2" stroke-linecap="round" stroke-linejoin="round"/></svg>