<svg width="48" height="48" fill="none" xmlns="http://www.w3.org/2000/svg"><rect x=".5" y=".5" width="47" height="47" rx="23.5" fill="#fff"/><rect x=".5" y=".5" width="47" height="47" rx="23.5" stroke="#E9E9E9"/><path d="M30.84 16.661c-2.458-1.508-4.604-.9-5.892.068-.529.397-.793.596-.948.596-.156 0-.42-.2-.948-.596-1.289-.968-3.435-1.576-5.893-.068-3.226 1.98-3.956 8.507 3.486 14.016C22.062 31.725 22.77 32.25 24 32.25c1.229 0 1.938-.524 3.355-1.574 7.441-5.507 6.711-12.036 3.486-14.015Z" stroke="#363636" stroke-width="2" stroke-linecap="round" stroke-linejoin="round"/></svg>