<svg width="19" height="18" fill="none" xmlns="http://www.w3.org/2000/svg"><path fill-rule="evenodd" clip-rule="evenodd" d="M4.215 1.688h10.57c.5 0 .928 0 1.27.042.362.046.712.149 1 .419.293.275.41.618.46.974.047.328.047.735.047 1.2v.582c0 .367 0 .683-.027.947a1.88 1.88 0 0 1-.248.807 1.98 1.98 0 0 1-.598.604c-.224.156-.51.317-.848.507l-2.206 1.242c-.503.283-.678.385-.794.486a1.45 1.45 0 0 0-.494.815c-.03.138-.034.312-.034.842v2.049c0 .675 0 1.25-.07 1.691-.074.469-.245.919-.696 1.2-.44.275-.924.25-1.395.138-.453-.107-1.012-.326-1.682-.588l-.065-.025a8.953 8.953 0 0 1-.807-.343c-.234-.121-.452-.271-.617-.505a1.56 1.56 0 0 1-.266-.75c-.027-.236-.027-.52-.027-.836v-2.031c0-.53-.003-.704-.035-.842a1.448 1.448 0 0 0-.493-.815c-.117-.101-.293-.203-.795-.486L3.16 7.77c-.338-.19-.623-.351-.848-.507a1.981 1.981 0 0 1-.598-.604 1.878 1.878 0 0 1-.248-.807c-.028-.264-.028-.58-.028-.947v-.582c0-.465 0-.872.048-1.2.05-.356.167-.699.46-.974.287-.27.637-.373 1-.419.342-.042.77-.042 1.27-.042ZM3.086 2.846c-.25.031-.33.083-.371.122-.038.035-.086.095-.117.314-.034.238-.035.564-.035 1.078v.518c0 .4 0 .658.02.858.02.185.053.274.093.341.042.068.11.145.276.261.176.121.415.257.78.463l2.185 1.23.06.034c.42.236.705.396.92.582.434.366.734.865.855 1.42.06.275.06.585.06 1.02v2.07c0 .353.001.57.02.734.017.149.045.199.065.228.023.032.068.08.217.158.159.082.379.168.725.303.721.283 1.206.47 1.573.558.36.085.478.041.538.003.052-.032.13-.098.182-.422.054-.343.056-.828.056-1.564v-2.068c0-.435 0-.745.061-1.02.12-.555.42-1.054.854-1.42.215-.186.5-.347.919-.582l.06-.034 2.185-1.23c.366-.206.605-.341.78-.463.166-.116.235-.193.276-.261.041-.067.074-.156.093-.341.02-.2.021-.458.021-.859V4.36c0-.513-.001-.84-.035-1.077-.031-.219-.08-.28-.116-.314-.042-.039-.122-.09-.372-.122-.262-.034-.619-.034-1.164-.034H4.25c-.545 0-.9 0-1.164.034Z" fill="#fff"/></svg>