<svg width="50" height="49" fill="none" xmlns="http://www.w3.org/2000/svg"><path d="M25.324 0C11.8 0 .824 10.976.824 24.5S11.8 49 25.324 49s24.5-10.976 24.5-24.5S38.848 0 25.324 0Zm11.368 16.66c-.367 3.871-1.96 13.279-2.768 17.616-.343 1.837-1.03 2.45-1.666 2.523-1.421.123-2.5-.931-3.871-1.837-2.156-1.422-3.381-2.304-5.464-3.676-2.425-1.592-.857-2.474.54-3.895.367-.367 6.639-6.076 6.761-6.59a.49.49 0 0 0-.122-.441c-.147-.123-.343-.074-.515-.05-.22.05-3.65 2.328-10.339 6.836-.98.662-1.862 1.005-2.646.98-.882-.024-2.548-.49-3.797-.907-1.544-.49-2.744-.759-2.646-1.617.049-.44.661-.881 1.813-1.347 7.154-3.111 11.907-5.17 14.283-6.15 6.811-2.841 8.208-3.332 9.139-3.332.196 0 .661.05.955.295a.97.97 0 0 1 .343.661c-.024.147.025.588 0 .931Z" fill="#272727"/></svg>