<svg width="49" height="49" fill="none" xmlns="http://www.w3.org/2000/svg"><path fill-rule="evenodd" clip-rule="evenodd" d="M24.5 0C10.969 0 0 10.969 0 24.5c0 4.63 1.286 8.967 3.523 12.662L1.338 44.59a2.474 2.474 0 0 0 3.072 3.072l7.428-2.185A24.396 24.396 0 0 0 24.5 49C38.031 49 49 38.031 49 24.5S38.031 0 24.5 0Zm-5.542 30.044c4.956 4.954 9.687 5.608 11.358 5.67 2.54.093 5.015-1.848 5.978-4.1a1.705 1.705 0 0 0-.215-1.722c-1.343-1.715-3.158-2.947-4.932-4.172a1.742 1.742 0 0 0-2.384.387l-1.47 2.242a.56.56 0 0 1-.747.186c-.997-.57-2.45-1.54-3.494-2.585-1.044-1.043-1.955-2.43-2.467-3.363a.556.556 0 0 1 .164-.713l2.264-1.681a1.744 1.744 0 0 0 .294-2.303c-1.098-1.607-2.377-3.65-4.231-5.006a1.703 1.703 0 0 0-1.676-.183c-2.254.965-4.204 3.44-4.111 5.985.061 1.671.715 6.402 5.67 11.358Z" fill="#272727"/></svg>