<svg width="21" height="21" viewBox="0 0 21 21" fill="none" xmlns="http://www.w3.org/2000/svg">
<circle cx="10.5668" cy="10.5932" r="10.3012" fill="#636363"/>
<path d="M10.8972 13.5839C10.4712 13.5839 10.1259 13.2386 10.1259 12.8127V7.70926C10.1259 7.2833 10.4712 6.93799 10.8972 6.93799C11.3232 6.93799 11.6685 7.2833 11.6685 7.70926V12.8127C11.6685 13.2386 11.3232 13.5839 10.8972 13.5839ZM8.31266 10.9994C7.90483 10.9994 7.57422 10.6688 7.57422 10.261C7.57422 9.85313 7.90483 9.52252 8.31266 9.52252H13.4817C13.8896 9.52252 14.2202 9.85313 14.2202 10.261C14.2202 10.6688 13.8896 10.9994 13.4817 10.9994H8.31266Z" fill="white"/>
</svg>
