<svg width="70" height="70" viewBox="0 0 70 70" fill="none" xmlns="http://www.w3.org/2000/svg">
<path d="M61.25 21.8749L49.5834 27.7083M49.5834 27.7083L48.125 28.4374L35 34.9999M49.5834 27.7083V37.9166M49.5834 27.7083L21.875 13.1249M35 34.9999L8.75004 21.8749M35 34.9999V62.7082M45.4359 9.86408L51.2692 12.9266C57.543 16.2195 60.6813 17.8645 62.4255 20.8249C64.1667 23.7824 64.1667 27.4662 64.1667 34.8308V35.172C64.1667 42.5337 64.1667 46.2174 62.4255 49.1749C60.6813 52.1353 57.543 53.7833 51.2692 57.0762L45.4359 60.1357C40.3142 62.822 37.7534 64.1666 35 64.1666C32.2467 64.1666 29.6859 62.8249 24.5642 60.1357L18.7309 57.0733C12.4571 53.7803 9.31879 52.1353 7.57462 49.1749C5.83337 46.2174 5.83337 42.5337 5.83337 35.1749V34.8337C5.83337 27.4691 5.83337 23.7853 7.57462 20.8278C9.31879 17.8674 12.4571 16.2195 18.7309 12.9295L24.5642 9.867C29.6859 7.17783 32.2467 5.83325 35 5.83325C37.7534 5.83325 40.3142 7.17492 45.4359 9.86408Z" stroke="black" stroke-width="3" stroke-linecap="round"/>
</svg>
