<svg width="70" height="70" viewBox="0 0 70 70" fill="none" xmlns="http://www.w3.org/2000/svg">
<path d="M44.1702 45.3402H52.5942C55.917 45.2856 61 47.0354 61 53.3482C61 59.9002 54.7288 61 52.5916 61H24.4596C17.9388 61 9 59.6766 9 48.442V24.6052H61V36.3494M49.3052 40.1376L44.88 43.8296C44.6641 44.0184 44.4896 44.2499 44.3675 44.5094C44.2453 44.7689 44.1781 45.0509 44.1702 45.3376C44.1629 45.6436 44.2231 45.9474 44.3467 46.2274C44.4703 46.5074 44.6542 46.7566 44.8852 46.9574L49.3052 50.5532M9.0156 24.5766L11.4102 18.5966C13.355 13.9452 14.3274 11.6208 16.2982 10.313C18.269 9.0052 20.7962 9 25.848 9H44.1C49.1544 9 51.6816 9 53.6524 10.3104C55.6232 11.6182 56.593 13.9426 58.5404 18.5914L61 24.587M34.9038 24.6026V9.0026M29.7038 35.0026H40.1038" stroke="black" stroke-width="3" stroke-linecap="round" stroke-linejoin="round"/>
</svg>
