<svg width="70" height="70" viewBox="0 0 70 70" fill="none" xmlns="http://www.w3.org/2000/svg">
<path d="M5.83337 13.125H25.5413C26.6908 13.1249 27.829 13.3512 28.8909 13.7911C29.9529 14.231 30.9178 14.8758 31.7305 15.6888L40.8334 24.7917M14.5834 39.375H5.83337M24.7917 21.875L30.625 27.7083C31.0081 28.0914 31.3119 28.5461 31.5192 29.0465C31.7265 29.547 31.8332 30.0833 31.8332 30.625C31.8332 31.1667 31.7265 31.703 31.5192 32.2035C31.3119 32.7039 31.0081 33.1586 30.625 33.5417C30.242 33.9247 29.7873 34.2285 29.2869 34.4358C28.7864 34.6431 28.25 34.7498 27.7084 34.7498C27.1667 34.7498 26.6303 34.6431 26.1299 34.4358C25.6294 34.2285 25.1747 33.9247 24.7917 33.5417L20.4167 29.1667C17.9084 31.675 13.933 31.9579 11.0921 29.8288L10.2084 29.1667" stroke="black" stroke-width="3" stroke-linecap="round" stroke-linejoin="round"/>
<path d="M14.5835 32.0834V45.2084C14.5835 50.7092 14.5835 53.4567 16.2927 55.1659C18.0018 56.8751 20.7493 56.8751 26.2502 56.8751H52.5002C58.001 56.8751 60.7485 56.8751 62.4577 55.1659C64.1668 53.4567 64.1668 50.7092 64.1668 45.2084V36.4584C64.1668 30.9576 64.1668 28.2101 62.4577 26.5009C60.7485 24.7917 58.001 24.7917 52.5002 24.7917H27.7085" stroke="black" stroke-width="3" stroke-linecap="round" stroke-linejoin="round"/>
<path d="M44.4793 40.8334C44.4793 42.1871 43.9416 43.4854 42.9844 44.4426C42.0271 45.3998 40.7289 45.9376 39.3752 45.9376C38.0215 45.9376 36.7232 45.3998 35.766 44.4426C34.8088 43.4854 34.271 42.1871 34.271 40.8334C34.271 39.4797 34.8088 38.1814 35.766 37.2242C36.7232 36.267 38.0215 35.7292 39.3752 35.7292C40.7289 35.7292 42.0271 36.267 42.9844 37.2242C43.9416 38.1814 44.4793 39.4797 44.4793 40.8334Z" stroke="black" stroke-width="3" stroke-linecap="round" stroke-linejoin="round"/>
</svg>
