<svg width="48" height="48" viewBox="0 0 48 48" fill="none" xmlns="http://www.w3.org/2000/svg">
<rect x="0.5" y="0.5" width="47" height="47" rx="23.5" fill="white"/>
<rect x="0.5" y="0.5" width="47" height="47" rx="23.5" stroke="#E9E9E9"/>
<path d="M15.7823 26.9333C16.32 29.6242 16.5894 30.9691 17.4777 31.8353C17.6426 31.9956 17.8195 32.1404 18.0084 32.27C19.0329 32.972 20.4049 32.972 23.1488 32.972H24.8543C27.5972 32.972 28.9682 32.972 29.9916 32.271C30.1819 32.1401 30.3588 31.9949 30.5224 31.8353C31.4117 30.9691 31.681 29.6242 32.2188 26.9343C32.9909 23.0728 33.3775 21.142 32.4882 19.7741C32.3271 19.5261 32.139 19.2967 31.9274 19.0901C30.7597 17.9504 28.7919 17.9504 24.8543 17.9504H23.1488C19.2092 17.9504 17.2403 17.9504 16.0727 19.0901C15.8614 19.2967 15.6737 19.5261 15.5129 19.7741C14.6236 21.142 15.0102 23.0728 15.7833 26.9343L15.7823 26.9333Z" stroke="#363636" stroke-width="2"/>
<path d="M27.0044 22.9576C27.5575 22.9576 28.0059 22.5093 28.0059 21.9562C28.0059 21.4031 27.5575 20.9548 27.0044 20.9548C26.4513 20.9548 26.003 21.4031 26.003 21.9562C26.003 22.5093 26.4513 22.9576 27.0044 22.9576Z" fill="#363636"/>
<path d="M20.9958 22.9576C21.5489 22.9576 21.9973 22.5093 21.9973 21.9562C21.9973 21.4031 21.5489 20.9548 20.9958 20.9548C20.4427 20.9548 19.9944 21.4031 19.9944 21.9562C19.9944 22.5093 20.4427 22.9576 20.9958 22.9576Z" fill="#363636"/>
<path d="M20.9953 17.9505V16.9491C20.9953 16.1523 21.3118 15.3881 21.8752 14.8247C22.4386 14.2613 23.2028 13.9448 23.9996 13.9448C24.7964 13.9448 25.5605 14.2613 26.1239 14.8247C26.6874 15.3881 27.0039 16.1523 27.0039 16.9491V17.9505" stroke="#363636" stroke-width="2" stroke-linecap="round"/>
</svg>
