<svg width="17" height="17" viewBox="0 0 17 17" fill="none" xmlns="http://www.w3.org/2000/svg">
<circle cx="8.56915" cy="8.59308" r="8.30743" fill="#272727"/>
<path d="M11.5214 5.83866L7.7522 9.6443L6.278 8.15095C6.12795 7.99976 5.92444 7.91483 5.71223 7.91483C5.50003 7.91483 5.29651 7.99976 5.14646 8.15095C4.99641 8.30213 4.91211 8.50718 4.91211 8.72099C4.91211 8.82686 4.93281 8.93169 4.97302 9.0295C5.01323 9.1273 5.07216 9.21617 5.14646 9.29103L7.18642 11.3464C7.2605 11.4217 7.34864 11.4814 7.44574 11.5221C7.54285 11.5629 7.647 11.5839 7.7522 11.5839C7.85739 11.5839 7.96155 11.5629 8.05865 11.5221C8.15576 11.4814 8.24389 11.4217 8.31797 11.3464L12.6529 6.97875C12.7272 6.90389 12.7861 6.81502 12.8263 6.71721C12.8665 6.6194 12.8872 6.51457 12.8872 6.4087C12.8872 6.30284 12.8665 6.19801 12.8263 6.1002C12.7861 6.00239 12.7272 5.91352 12.6529 5.83866C12.5786 5.7638 12.4904 5.70442 12.3933 5.6639C12.2962 5.62339 12.1922 5.60254 12.0871 5.60254C11.982 5.60254 11.878 5.62339 11.7809 5.6639C11.6839 5.70442 11.5956 5.7638 11.5214 5.83866Z" fill="white"/>
</svg>
