<svg width="60" height="60" viewBox="0 0 60 60" fill="none" xmlns="http://www.w3.org/2000/svg">
<rect x="1" y="1" width="58" height="58" rx="14" stroke="#F0F0F0" stroke-width="2"/>
<path d="M18.75 27.5V38.75C18.75 39.413 19.0134 40.0489 19.4822 40.5178C19.9511 40.9866 20.587 41.25 21.25 41.25H38.75C39.413 41.25 40.0489 40.9866 40.5178 40.5178C40.9866 40.0489 41.25 39.413 41.25 38.75V27.5" stroke="#313131" stroke-width="2"/>
<path d="M33.5415 41.25V33.75C33.5415 33.087 33.2781 32.4511 32.8093 31.9822C32.3404 31.5134 31.7045 31.25 31.0415 31.25H28.5415C27.8785 31.25 27.2426 31.5134 26.7737 31.9822C26.3049 32.4511 26.0415 33.087 26.0415 33.75V41.25" stroke="#313131" stroke-width="2" stroke-miterlimit="16"/>
<path d="M42.2725 26.705L40.155 19.2937C40.1102 19.1371 40.0155 18.9992 39.8854 18.9011C39.7553 18.803 39.5967 18.75 39.4338 18.75H34.375L34.9688 25.88C34.9779 25.9946 35.0142 26.1054 35.0746 26.2032C35.1351 26.301 35.2179 26.383 35.3163 26.4425C35.8038 26.7337 36.7562 27.2712 37.5 27.5C38.77 27.8912 40.625 27.75 41.6825 27.62C41.7853 27.6067 41.884 27.5711 41.9716 27.5158C42.0593 27.4604 42.1338 27.3866 42.19 27.2995C42.2461 27.2124 42.2826 27.114 42.2969 27.0114C42.3111 26.9087 42.3028 26.8041 42.2725 26.705Z" stroke="#313131" stroke-width="2"/>
<path d="M32.5001 27.5C33.2101 27.2813 34.1101 26.7825 34.6126 26.485C34.7295 26.4151 34.8244 26.3136 34.8863 26.1922C34.9482 26.0708 34.9746 25.9345 34.9626 25.7987L34.3751 18.75H25.6251L25.0376 25.7987C25.0253 25.9347 25.0517 26.0713 25.1136 26.1929C25.1755 26.3145 25.2705 26.4162 25.3876 26.4863C25.8901 26.7825 26.7901 27.2813 27.5001 27.5C29.3664 28.075 30.6339 28.075 32.5001 27.5Z" stroke="#313131" stroke-width="2"/>
<path d="M19.8452 19.2937L17.7277 26.7063C17.6978 26.8052 17.6898 26.9095 17.7043 27.0119C17.7187 27.1143 17.7553 27.2123 17.8114 27.2991C17.8676 27.3859 17.9419 27.4595 18.0294 27.5147C18.1168 27.5699 18.2152 27.6054 18.3177 27.6188C19.3739 27.75 21.2302 27.89 22.5002 27.5C23.2439 27.2713 24.1977 26.7338 24.6839 26.4438C24.7825 26.3841 24.8654 26.3019 24.9258 26.2039C24.9862 26.1058 25.0225 25.9948 25.0314 25.88L25.6252 18.75H20.5664C20.4035 18.75 20.2449 18.803 20.1148 18.9011C19.9846 18.9992 19.89 19.1371 19.8452 19.2937Z" stroke="#313131" stroke-width="2"/>
</svg>
