<svg width="50" height="50" viewBox="0 0 50 50" fill="none" xmlns="http://www.w3.org/2000/svg">
<rect width="50" height="50" rx="25" fill="#F2F2F2"/>
<path d="M33.75 17.4167L33.0267 29.1125C32.8423 32.1003 32.7502 33.5948 32 34.6693C31.6297 35.2004 31.1529 35.6485 30.6 35.9853C29.4835 36.6667 27.9867 36.6667 24.993 36.6667C21.9947 36.6667 20.4955 36.6667 19.3767 35.9842C18.8235 35.6467 18.3467 35.1977 17.9767 34.6658C17.2277 33.5902 17.1367 32.0933 16.957 29.1008L16.25 17.4167M14.5 17.4167H35.5M29.732 17.4167L28.9352 15.774C28.4067 14.682 28.1418 14.1372 27.6857 13.7965C27.5843 13.721 27.477 13.6539 27.3648 13.5958C26.8597 13.3333 26.253 13.3333 25.0408 13.3333C23.7972 13.3333 23.1753 13.3333 22.6608 13.6063C22.5471 13.6673 22.4386 13.7375 22.3365 13.8163C21.8757 14.1698 21.6178 14.7357 21.1022 15.8662L20.3952 17.4167" stroke="#2C2C2C" stroke-width="2" stroke-linecap="round" stroke-linejoin="round"/>
</svg>
