<svg width="15" height="16" viewBox="0 0 15 16" fill="none" xmlns="http://www.w3.org/2000/svg">
<path d="M1.70711 0.792893C1.31658 0.402369 0.683417 0.402369 0.292893 0.792893C-0.0976311 1.18342 -0.0976311 1.81658 0.292893 2.20711L1.70711 0.792893ZM14 15.5C14.5523 15.5 15 15.0523 15 14.5V5.5C15 4.94772 14.5523 4.5 14 4.5C13.4477 4.5 13 4.94772 13 5.5V13.5H5C4.44772 13.5 4 13.9477 4 14.5C4 15.0523 4.44772 15.5 5 15.5H14ZM0.292893 2.20711L13.2929 15.2071L14.7071 13.7929L1.70711 0.792893L0.292893 2.20711Z" fill="#515152"/>
</svg>
