<svg width="19" height="18" viewBox="0 0 19 18" fill="none" xmlns="http://www.w3.org/2000/svg">
<path fill-rule="evenodd" clip-rule="evenodd" d="M4.21475 1.6875H14.7853C15.2855 1.6875 15.713 1.6875 16.055 1.73025C16.4172 1.776 16.7675 1.87875 17.0555 2.14875C17.348 2.424 17.4643 2.76675 17.5153 3.123C17.5625 3.45075 17.5625 3.858 17.5625 4.323V4.905C17.5625 5.27175 17.5625 5.5875 17.5355 5.85225C17.5055 6.13725 17.4417 6.4035 17.2872 6.65925C17.1335 6.9135 16.9272 7.098 16.6887 7.263C16.4645 7.419 16.1788 7.58025 15.8412 7.77L13.6348 9.012C13.1323 9.29475 12.9575 9.39675 12.8405 9.498C12.5728 9.7305 12.419 9.98925 12.347 10.3125C12.3162 10.4513 12.3125 10.6252 12.3125 11.1547V13.2037C12.3125 13.8795 12.3125 14.4533 12.2428 14.895C12.1692 15.3638 11.9975 15.8137 11.5475 16.095C11.1072 16.3702 10.6235 16.3447 10.1525 16.233C9.69875 16.1257 9.14 15.9068 8.4695 15.645L8.405 15.6195C8.09 15.4965 7.8155 15.3892 7.598 15.2767C7.364 15.156 7.1465 15.006 6.98075 14.772C6.812 14.535 6.74525 14.2815 6.7145 14.022C6.6875 13.7857 6.6875 13.5022 6.6875 13.1857V11.1547C6.6875 10.6252 6.6845 10.4513 6.653 10.3125C6.58508 9.99311 6.41116 9.70607 6.1595 9.498C6.0425 9.39675 5.867 9.29475 5.36525 9.012L3.15875 7.77C2.82125 7.58025 2.5355 7.419 2.31125 7.263C2.07275 7.098 1.8665 6.9135 1.71275 6.65925C1.55825 6.4035 1.4945 6.1365 1.46525 5.85225C1.4375 5.58825 1.4375 5.27175 1.4375 4.905V4.323C1.4375 3.858 1.4375 3.45075 1.48475 3.123C1.53575 2.76675 1.652 2.424 1.9445 2.14875C2.2325 1.87875 2.582 1.776 2.945 1.73025C3.287 1.6875 3.7145 1.6875 4.21475 1.6875ZM3.086 2.847C2.8355 2.8785 2.756 2.9295 2.71475 2.96925C2.67725 3.00375 2.62925 3.0645 2.59775 3.28275C2.564 3.52125 2.5625 3.84675 2.5625 4.36125V4.87875C2.5625 5.27925 2.5625 5.53725 2.5835 5.73675C2.603 5.922 2.636 6.01125 2.6765 6.078C2.71775 6.14625 2.78675 6.2235 2.9525 6.339C3.128 6.4605 3.36725 6.59625 3.7325 6.80175L5.91725 8.03175L5.97725 8.0655C6.39725 8.30175 6.68225 8.46225 6.89675 8.64825C7.33057 9.01422 7.63117 9.51339 7.75175 10.068C7.8125 10.3433 7.8125 10.653 7.8125 11.088V13.1572C7.8125 13.5112 7.81325 13.7288 7.83275 13.8923C7.84925 14.0408 7.877 14.091 7.89725 14.1202C7.91975 14.1517 7.96475 14.2005 8.114 14.2778C8.273 14.3595 8.49275 14.4457 8.83925 14.5815C9.56 14.8635 10.0452 15.0517 10.412 15.1388C10.7712 15.2242 10.8898 15.18 10.9505 15.1417C11.0015 15.1095 11.0802 15.0442 11.132 14.7195C11.186 14.3767 11.1875 13.8923 11.1875 13.1565V11.088C11.1875 10.653 11.1875 10.3433 11.249 10.068C11.3694 9.51349 11.6697 9.01434 12.1032 8.64825C12.3177 8.46225 12.6035 8.301 13.022 8.0655L13.0828 8.03175L15.2675 6.80175C15.6328 6.59625 15.872 6.4605 16.0475 6.339C16.2132 6.2235 16.2822 6.14625 16.3235 6.078C16.364 6.01125 16.397 5.922 16.4158 5.73675C16.4368 5.53725 16.4375 5.27925 16.4375 4.878V4.3605C16.4375 3.84675 16.436 3.5205 16.4022 3.28275C16.3707 3.0645 16.322 3.00375 16.286 2.96925C16.244 2.93025 16.1645 2.8785 15.914 2.847C15.6515 2.81325 15.2952 2.8125 14.75 2.8125H4.25C3.70475 2.8125 3.34925 2.81325 3.086 2.847Z" fill="white"/>
</svg>
