<svg width="234" height="38" viewBox="0 0 234 38" fill="none" xmlns="http://www.w3.org/2000/svg">
<path d="M18.0372 37.2629V27.4514H16.1798V37.2831C12.3844 37.0206 8.99281 35.7891 6.12608 33.3665C2.37106 30.197 0.311857 26.1391 0.0090332 21.193C0.614681 21.193 1.15976 21.1728 1.72504 21.193C4.08706 21.3142 6.22703 22.2024 8.30642 23.232C9.69941 23.9184 11.0924 24.5846 12.6065 24.9884C14.3023 25.4326 16.0183 25.6748 17.7747 25.5941C20.0156 25.5133 22.1556 24.9682 24.1946 24.0396C25.6078 23.3935 27.0209 22.687 28.4543 22.1015C30.2309 21.3747 32.0882 21.0719 34.0061 21.1324C34.0666 21.1324 34.1272 21.1325 34.1676 21.1526C34.0666 29.2683 26.9806 36.9399 18.0372 37.2629Z" fill="#272727"/>
<path d="M23.6701 14.9347C23.6095 15.3384 23.8316 15.6009 24.0738 15.8633C23.7508 16.1863 23.5085 16.5497 23.5085 17.0342C23.4883 17.761 23.8921 18.3868 24.5382 18.6493C25.2044 18.9319 25.9715 18.7906 26.456 18.2859C26.9607 17.761 27.1223 17.014 26.7791 16.368C26.3753 15.5403 25.7091 15.0154 24.7602 14.9347C24.3968 14.9145 24.0334 14.9347 23.6701 14.9347Z" fill="#272727"/>
<path d="M7.63977 14.9347C7.5792 15.3384 7.80127 15.6009 8.04353 15.8633C7.72052 16.1863 7.47826 16.5497 7.47826 17.0342C7.45807 17.761 7.86185 18.3868 8.50787 18.6493C9.17408 18.9319 9.94124 18.7906 10.4258 18.2859C10.9305 17.761 11.092 17.014 10.7488 16.368C10.345 15.5403 9.67879 15.0154 8.72994 14.9347C8.36655 14.9145 8.00315 14.9347 7.63977 14.9347Z" fill="#272727"/>
<path d="M32.6134 13.0773C32.1087 12.5726 31.5232 12.29 30.8166 12.2698C29.8678 12.2496 28.8987 12.2698 27.9297 12.2698C28.0508 12.4918 28.2325 12.5524 28.4546 12.5524C29.1612 12.5322 29.888 12.512 30.5946 12.5322C31.3415 12.5524 31.4021 12.4111 32.6134 13.0773Z" fill="white"/>
<path d="M26.355 9.504C26.355 9.12042 26.3348 8.71666 26.2541 8.33308C25.9715 6.77859 25.3254 5.3654 24.2958 4.15411C22.0953 1.5902 19.3295 0.439467 15.9581 0.823044C14.0806 1.04511 12.4049 1.79208 10.9918 3.06394C8.97293 4.88088 7.84238 7.12178 7.86257 9.86738C7.86257 10.9374 7.86257 12.0275 7.86257 13.0975V13.7032H10.2448V13.4003C10.2448 12.29 10.2448 11.1594 10.265 10.0491C10.265 9.62513 10.3053 9.20117 10.3659 8.79741C11.1936 4.25505 16.0388 1.97377 19.814 3.70996C22.2568 4.84051 23.67 6.7584 23.9324 9.44344C24.0536 10.6951 23.9728 11.967 23.993 13.2186C23.993 13.3802 23.993 13.5215 23.993 13.7032H26.3348C26.3348 13.6224 26.355 13.5618 26.355 13.5215C26.355 12.1689 26.355 10.8364 26.355 9.504ZM25.7292 7.92932C25.2043 6.55651 24.5381 5.34522 23.7104 4.35599C22.5798 3.00338 21.1263 2.05453 19.3093 1.63057C18.5825 1.46907 17.7952 1.38832 16.9473 1.40851C15.8975 1.4287 14.9285 1.5902 14.0604 1.89302C14.0402 1.89302 14.02 1.91322 14.02 1.91322C14.02 1.91322 14.02 1.91322 13.9998 1.91322C12.95 2.2766 12.0214 2.84187 11.234 3.58884C10.0631 4.67901 9.15461 6.15274 8.4884 7.90912C8.93254 4.57806 12.4251 1.12586 16.9877 1.04511C18.0173 1.02492 19.0065 1.20662 19.9553 1.52963C21.308 1.99396 22.5192 2.78131 23.4883 3.75034C24.7198 4.90107 25.5273 6.39501 25.7292 7.92932Z" fill="#272727"/>
<path d="M16.1798 23.5349V12.0275H16.1596H11.3346C11.4759 13.1379 11.3548 14.1271 11.0116 14.8539C12.3238 16.2873 12.021 17.9427 11.0318 18.9319C10.1031 19.8808 8.30635 20.0221 7.21619 19.0329C6.71148 18.5685 6.34809 18.0235 6.26733 17.3371C6.14621 16.3478 6.42884 15.4999 7.17581 14.8337C6.50959 13.9656 6.91336 12.9764 6.75186 12.0275C6.69129 12.0275 6.63073 12.0275 6.54998 12.0275C5.48 12.0275 4.38983 12.0275 3.31985 12.0275C2.45176 12.0477 1.72498 12.3909 1.11933 13.037C0.331985 13.9051 0.0291608 14.9347 0.00897256 16.0652C-0.0112157 17.014 0.00897256 17.9427 0.00897256 18.8916C0.00897256 18.9925 0.0291682 19.0934 0.0291682 19.2348C0.210863 19.2348 0.372369 19.2348 0.533875 19.2348C0.715569 19.2348 0.87707 19.2146 1.05876 19.2146C3.42079 19.2146 5.6415 19.8202 7.76127 20.8296C8.95238 21.3949 10.1233 21.9804 11.3144 22.4851C12.8487 23.1513 14.4638 23.5349 16.1596 23.6156C16.1798 23.5752 16.1798 23.555 16.1798 23.5349ZM5.66169 12.5322C5.47999 12.5322 5.2983 12.5323 5.1166 12.5121C4.57152 12.4919 4.04663 12.4919 3.52174 12.5121C3.48136 12.5121 3.42079 12.5121 3.38042 12.5121C3.29966 12.5121 3.21891 12.5121 3.15835 12.5121C3.11797 12.5121 3.09778 12.5121 3.05741 12.5121C2.85553 12.5121 2.69401 12.5322 2.47194 12.5928C2.24987 12.6736 1.94705 12.7947 1.50291 13.037C1.6846 12.8553 1.88649 12.6938 2.10856 12.5726C2.24987 12.4919 2.41138 12.4111 2.5527 12.3707C2.71421 12.3102 2.87571 12.2698 3.03721 12.2496C3.11797 12.2294 3.19872 12.2294 3.29966 12.2294C3.78418 12.2092 4.24851 12.2092 4.73303 12.2092C5.21755 12.2092 5.70207 12.2092 6.18659 12.2092C6.06546 12.4717 5.90395 12.5322 5.66169 12.5322ZM15.776 12.5121H11.7989C11.7182 12.5121 11.6576 12.4515 11.6576 12.3707C11.6576 12.29 11.7182 12.2294 11.7989 12.2294H15.776C15.8568 12.2294 15.9173 12.29 15.9173 12.3707C15.8971 12.4717 15.8568 12.5121 15.776 12.5121Z" fill="#272727"/>
<path d="M34.2076 15.9037C34.2076 15.2375 34.0461 14.5914 33.7433 13.9858C33.2789 13.0773 32.6127 12.3707 31.5629 12.1083C31.4216 12.0679 31.2601 12.0275 31.0986 12.0275C29.8671 12.0275 28.6356 12.0275 27.4243 12.0275C27.283 12.9764 27.6666 13.9656 27.061 14.8337C28.3934 16.2065 28.1713 17.9831 26.96 19.053C25.9506 19.9413 24.2548 19.9413 23.2454 19.0127C22.7407 18.5483 22.3975 17.9629 22.3167 17.2563C22.2158 16.3074 22.4984 15.4797 23.205 14.8337C22.559 13.9656 22.9627 12.9562 22.8012 12.0275H18.0166V23.6358C19.7528 23.4945 21.4082 23.1109 22.9627 22.4245C24.2548 21.8592 25.5266 21.193 26.8187 20.6277C29.0394 19.6385 31.3611 19.0934 33.824 19.2347C33.9452 19.2347 34.0461 19.2347 34.1874 19.2347C34.2076 18.084 34.2076 16.9938 34.2076 15.9037ZM18.3194 12.3909C18.3194 12.3102 18.38 12.2496 18.4607 12.2496H22.4378C22.5186 12.2496 22.5791 12.3102 22.5791 12.3909C22.5791 12.4717 22.5186 12.5322 22.4378 12.5322H18.4607C18.38 12.5322 18.3194 12.4717 18.3194 12.3909Z" fill="#272727"/>
<path d="M63.1306 27.8068L62.955 34.3544H44.0898V33.6019H44.7421C45.6954 33.6019 46.3476 33.4764 46.7239 33.2506C47.1002 32.9998 47.326 32.6486 47.4264 32.1217C47.5267 31.62 47.5769 30.4409 47.5769 28.5845V17.697C47.5769 15.9158 47.5267 14.7869 47.4264 14.2601C47.326 13.7583 47.1002 13.3821 46.7741 13.2065C46.448 13.0058 45.7205 12.9054 44.5916 12.9054H44.0898V12.1528H54.7516V12.9054H53.7733C52.6695 12.9054 51.967 13.0058 51.6158 13.1814C51.2646 13.357 51.0388 13.7082 50.9385 14.1848C50.813 14.6866 50.7629 15.8406 50.7629 17.697V29.3371C50.7629 30.9427 50.8131 31.9461 50.8883 32.3475C50.9636 32.7489 51.2144 33.075 51.5907 33.3008C51.967 33.5266 52.82 33.6269 54.0994 33.6269H55.7802C57.1349 33.6269 58.1634 33.5015 58.8157 33.2757C59.4679 33.0248 60.0951 32.5231 60.6972 31.6952C61.2992 30.8925 61.8261 29.6131 62.3278 27.857H63.1306V27.8068Z" fill="#272727"/>
<path d="M85.9339 12.1277H93.3595V12.8803C92.3811 12.9556 91.6536 13.1563 91.1519 13.5326C90.6752 13.9089 90.3742 14.3354 90.2488 14.812C90.1484 15.2886 90.0732 16.1918 90.0732 17.5464V24.947C90.0732 26.8285 89.9979 28.2333 89.8474 29.1615C89.6969 30.0897 89.2704 30.9928 88.568 31.8709C87.8655 32.7489 86.8621 33.4513 85.5827 33.9781C84.3033 34.505 82.8231 34.7558 81.1674 34.7558C79.1856 34.7558 77.5048 34.4297 76.1501 33.7524C74.7703 33.075 73.792 32.2221 73.215 31.1433C72.638 30.0897 72.337 28.6598 72.337 26.8536L72.362 24.5707V17.6468C72.362 15.8656 72.3119 14.7367 72.2115 14.235C72.1112 13.7333 71.8854 13.357 71.5593 13.1814C71.2331 12.9807 70.5056 12.8803 69.3767 12.8803H68.875V12.1277H79.01V12.8803H78.5584C77.4546 12.8803 76.7522 12.9807 76.401 13.1563C76.0498 13.3319 75.824 13.6831 75.7236 14.1598C75.5982 14.6615 75.548 15.8155 75.548 17.6719V24.671C75.548 27.1044 75.6484 28.8103 75.8742 29.8389C76.0999 30.8674 76.7271 31.7454 77.7557 32.498C78.7842 33.2506 80.164 33.6269 81.8949 33.6269C83.2496 33.6269 84.4789 33.3761 85.5827 32.8743C86.6865 32.3726 87.5143 31.7204 88.0662 30.9678C88.6181 30.2152 88.9443 29.4375 89.0697 28.6347C89.1951 27.8319 89.2453 26.5776 89.2453 24.8466V17.2705C89.2453 16.0161 89.17 15.1381 89.0195 14.6364C88.869 14.1346 88.568 13.7333 88.0913 13.4322C87.6147 13.1312 86.8872 12.9556 85.8586 12.8803V12.1277H85.9339Z" fill="#272727"/>
<path d="M114.031 22.0118L119.776 29.011C121.833 31.4946 123.138 32.8743 123.69 33.1754C124.241 33.4513 124.969 33.6018 125.872 33.6018V34.3544H114.859V33.6018C115.963 33.6018 116.741 33.5015 117.167 33.3008C117.619 33.1001 117.819 32.774 117.819 32.2973C117.819 32.0214 117.719 31.6953 117.518 31.3691C117.318 31.043 116.791 30.3657 115.963 29.3371L111.999 24.4453L108.512 28.6849C107.684 29.6883 107.158 30.3907 106.907 30.7921C106.656 31.1935 106.53 31.5698 106.53 31.9461C106.53 33.0499 107.383 33.6269 109.089 33.6269V34.3795H100.484V33.6269C101.413 33.5768 102.241 33.3761 102.993 33.0248C103.746 32.6736 104.423 32.1719 105.075 31.5447C105.703 30.9176 106.606 29.8639 107.785 28.3587L111.498 23.8933L105.652 16.8691L103.771 14.6113C103.395 14.1347 102.968 13.7333 102.466 13.4072C101.965 13.081 101.312 12.9305 100.484 12.9305V12.1779H109.967V12.9305H109.666C108.412 12.9305 107.81 13.2817 107.81 13.9591C107.81 14.235 107.91 14.511 108.086 14.8371C108.286 15.1381 108.713 15.7151 109.415 16.543L113.504 21.485L117.192 16.8691C117.97 15.8907 118.446 15.2886 118.622 15.0127C118.798 14.7367 118.873 14.4859 118.873 14.2099C118.873 13.7584 118.647 13.4322 118.221 13.2315C117.794 13.0559 117.042 12.9556 115.988 12.9556V12.203H124.317V12.9556C122.887 12.9556 121.708 13.3821 120.729 14.2099C119.751 15.0378 118.697 16.1918 117.518 17.6719L114.031 22.0118Z" fill="#272727"/>
<path d="M143.709 22.3882C146.243 22.5638 148.099 23.1909 149.328 24.2696C150.558 25.3484 151.16 26.678 151.16 28.2835C151.16 29.6883 150.733 30.8925 149.905 31.896C149.077 32.8994 148.024 33.5768 146.719 33.8778C145.415 34.1789 143.684 34.3545 141.526 34.3545H132.821V33.6019H133.674C134.628 33.6019 135.28 33.4764 135.656 33.2507C136.032 32.9998 136.258 32.6486 136.358 32.1218C136.459 31.62 136.509 30.441 136.509 28.5846V17.7722C136.509 15.966 136.459 14.812 136.358 14.2852C136.258 13.7584 136.032 13.4072 135.706 13.2065C135.38 13.0058 134.653 12.9054 133.524 12.9054H133.097V12.1528L136.76 12.0525L140.924 11.9271C146.995 11.9271 150.031 13.6831 150.031 17.1702C150.031 18.6001 149.504 19.7791 148.475 20.6321C147.397 21.485 145.816 22.062 143.709 22.3882ZM139.695 22.062C139.971 22.062 140.197 22.0871 140.372 22.0871C142.73 22.0871 144.336 21.7108 145.214 20.9833C146.067 20.2307 146.519 19.0266 146.519 17.3708C146.519 16.2169 146.343 15.3138 146.017 14.6866C145.666 14.0594 145.164 13.5577 144.487 13.2316C143.809 12.8803 142.655 12.7047 141.025 12.7047C140.598 12.7047 140.172 12.7298 139.72 12.7549V22.062H139.695ZM139.695 22.8648V27.8068C139.695 29.9141 139.745 31.2437 139.82 31.8207C139.896 32.3977 140.096 32.8242 140.423 33.1252C140.749 33.4263 141.426 33.5768 142.404 33.5768C144.16 33.5768 145.465 33.1252 146.343 32.2221C147.221 31.319 147.647 29.9894 147.647 28.1831C147.647 26.3518 147.146 24.9972 146.167 24.1191C145.189 23.2411 143.433 22.8146 140.949 22.8146C140.548 22.8397 140.147 22.8397 139.695 22.8648Z" fill="#272727"/>
<path d="M172.257 26.1512H163.828L163.251 27.556C162.398 29.588 161.972 30.9427 161.972 31.5448C161.972 32.2221 162.197 32.7238 162.649 33.05C163.101 33.4012 163.678 33.5768 164.405 33.5768V34.3294H157.782V33.5768C158.761 33.4263 159.488 33.075 159.99 32.5482C160.467 31.9963 161.043 30.8674 161.721 29.1365C161.771 28.9609 162.047 28.3337 162.499 27.2299L168.946 11.8016H169.573L176.999 29.4375L178.002 31.7705C178.228 32.2974 178.529 32.6988 178.93 32.9998C179.307 33.3008 179.909 33.4764 180.686 33.5768V34.3294H171.956V33.5768C173.035 33.5768 173.762 33.5015 174.139 33.351C174.515 33.2005 174.716 32.8744 174.716 32.3977C174.716 32.1468 174.465 31.4444 173.963 30.2403L172.257 26.1512ZM171.981 25.3986L168.043 15.9158L164.129 25.3986H171.981Z" fill="#272727"/>
<path d="M200.78 24.8466H210.363V25.6243C209.31 25.6243 208.582 25.7247 208.206 25.9504C207.83 26.1511 207.579 26.5274 207.453 27.0041C207.328 27.5058 207.278 28.71 207.278 30.6165V32.9747C207.027 32.9245 206.776 32.8994 206.575 32.8994C205.722 32.8994 204.619 33.1503 203.264 33.6771C201.408 34.3795 199.677 34.7307 198.096 34.7307C194.91 34.7307 192.276 33.6771 190.169 31.5949C188.061 29.5127 187.008 26.8535 187.008 23.6425C187.008 20.4565 188.011 17.6719 190.018 15.2887C192.025 12.9054 194.76 11.7013 198.221 11.7013C201.182 11.7013 203.64 12.8051 205.597 14.9876C205.948 14.235 206.199 13.4071 206.274 12.504H207.052V19.9297H206.274C205.948 17.6468 205.095 15.8405 203.665 14.5109C202.26 13.1814 200.529 12.504 198.523 12.504C196.44 12.504 194.609 13.2817 193.054 14.8371C191.498 16.3925 190.721 19.152 190.721 23.0906C190.721 27.0292 191.473 29.8389 192.953 31.4695C194.459 33.1252 196.315 33.928 198.523 33.928C199.651 33.928 200.68 33.7022 201.608 33.2256C202.536 32.7489 203.164 32.197 203.515 31.5197C203.841 30.8423 204.017 30.0145 204.017 28.9859C204.017 27.8068 203.941 27.0041 203.791 26.6027C203.64 26.2013 203.389 25.9253 203.063 25.7999C202.737 25.6745 202.135 25.5992 201.257 25.5992H200.73V24.8466H200.78Z" fill="#272727"/>
<path d="M219.144 34.1036V26.9539H219.971C220.9 31.5949 223.107 33.928 226.569 33.928C228.125 33.928 229.329 33.4764 230.207 32.5984C231.06 31.7204 231.486 30.7169 231.486 29.6131C231.486 28.5093 231.11 27.556 230.357 26.8034C229.605 26.0508 228.225 25.2731 226.218 24.4201C224.437 23.6675 223.082 22.9902 222.179 22.4132C221.276 21.8362 220.573 21.0837 220.047 20.1805C219.545 19.2523 219.294 18.2739 219.294 17.2454C219.294 15.6649 219.846 14.3354 220.95 13.2817C222.054 12.2281 223.433 11.7013 225.114 11.7013C226.042 11.7013 226.945 11.8518 227.773 12.1528C228.601 12.4539 229.454 13.081 230.332 14.0594C230.834 13.4573 231.11 12.8051 231.185 12.1026H231.913V17.9227H231.185C230.759 16.2169 230.031 14.8873 228.978 13.934C227.924 12.9556 226.695 12.4789 225.315 12.4789C223.985 12.4789 223.032 12.8302 222.405 13.5577C221.778 14.2852 221.477 15.0629 221.477 15.9158C221.477 16.9444 221.853 17.8224 222.631 18.5248C223.383 19.2523 224.788 20.0551 226.77 20.9582C228.676 21.8112 230.081 22.4885 230.934 23.0153C231.812 23.5421 232.49 24.2445 233.016 25.1727C233.543 26.1009 233.794 27.1546 233.794 28.3588C233.794 30.2653 233.167 31.7956 231.888 32.9998C230.608 34.1788 228.927 34.7809 226.82 34.7809C224.387 34.7809 222.355 33.8527 220.724 31.9712C220.373 32.473 220.097 33.2005 219.921 34.1287H219.144V34.1036Z" fill="#272727"/>
</svg>
