<svg width="27" height="27" viewBox="0 0 27 27" fill="none" xmlns="http://www.w3.org/2000/svg">
<path d="M13.3245 14.4302C15.1637 14.4302 16.6548 12.9391 16.6548 11.0999C16.6548 9.26057 15.1637 7.76953 13.3245 7.76953C11.4852 7.76953 9.99414 9.26057 9.99414 11.0999C9.99414 12.9391 11.4852 14.4302 13.3245 14.4302Z" stroke="#727272" stroke-width="2.22021" stroke-linecap="round" stroke-linejoin="round"/>
<path d="M13.3228 2.22021C10.9674 2.22021 8.70852 3.15587 7.04304 4.82136C5.37755 6.48684 4.44189 8.74572 4.44189 11.1011C4.44189 13.2014 4.88816 14.5757 6.10706 16.0966L13.3228 24.4224L20.5385 16.0966C21.7574 14.5757 22.2036 13.2014 22.2036 11.1011C22.2036 8.74572 21.268 6.48684 19.6025 4.82136C17.937 3.15587 15.6781 2.22021 13.3228 2.22021V2.22021Z" stroke="#727272" stroke-width="2.22021" stroke-linecap="round" stroke-linejoin="round"/>
</svg>
