<svg width="50" height="49" viewBox="0 0 50 49" fill="none" xmlns="http://www.w3.org/2000/svg">
<path d="M25.3242 0C11.8002 0 0.824219 10.976 0.824219 24.5C0.824219 38.024 11.8002 49 25.3242 49C38.8482 49 49.8242 38.024 49.8242 24.5C49.8242 10.976 38.8482 0 25.3242 0ZM36.6922 16.66C36.3247 20.531 34.7322 29.939 33.9237 34.2755C33.5807 36.113 32.8947 36.7255 32.2577 36.799C30.8367 36.9215 29.7587 35.868 28.3867 34.9615C26.2307 33.5405 25.0057 32.6585 22.9232 31.2865C20.4977 29.694 22.0657 28.812 23.4622 27.391C23.8297 27.0235 30.1017 21.315 30.2242 20.8005C30.2412 20.7226 30.239 20.6417 30.2176 20.5648C30.1963 20.488 30.1565 20.4175 30.1017 20.3595C29.9547 20.237 29.7587 20.286 29.5872 20.3105C29.3667 20.3595 25.9367 22.638 19.2482 27.146C18.2682 27.8075 17.3862 28.1505 16.6022 28.126C15.7202 28.1015 14.0542 27.636 12.8047 27.2195C11.2612 26.7295 10.0607 26.46 10.1587 25.6025C10.2077 25.1615 10.8202 24.7205 11.9717 24.255C19.1257 21.1435 23.8787 19.0855 26.2552 18.1055C33.0662 15.2635 34.4627 14.7735 35.3937 14.7735C35.5897 14.7735 36.0552 14.8225 36.3492 15.0675C36.5942 15.2635 36.6677 15.533 36.6922 15.729C36.6677 15.876 36.7167 16.317 36.6922 16.66Z" fill="#272727"/>
</svg>
