<svg width="49" height="49" viewBox="0 0 49 49" fill="none" xmlns="http://www.w3.org/2000/svg">
<path fill-rule="evenodd" clip-rule="evenodd" d="M24.5 0C10.9687 0 0 10.9686 0 24.5C0 29.1305 1.28625 33.467 3.5231 37.1616L1.3377 44.59C1.21222 45.0165 1.20397 45.4689 1.3138 45.8997C1.42363 46.3305 1.6475 46.7238 1.96186 47.0381C2.27622 47.3525 2.66947 47.5763 3.10027 47.6862C3.53107 47.796 3.9835 47.7878 4.41 47.6623L11.8384 45.4769C15.6572 47.7874 20.0366 49.006 24.5 49C38.0313 49 49 38.0313 49 24.5C49 10.9686 38.0313 0 24.5 0ZM18.9581 30.0443C23.9144 34.9982 28.6454 35.6524 30.3163 35.7136C32.8569 35.8067 35.3314 33.8663 36.2943 31.6148C36.4159 31.3347 36.46 31.0271 36.4221 30.7241C36.3841 30.4212 36.2655 30.1339 36.0787 29.8924C34.7361 28.1774 32.9207 26.9451 31.1469 25.7201C30.7765 25.464 30.3214 25.3613 29.877 25.4335C29.4325 25.5056 29.0333 25.7471 28.763 26.1072L27.293 28.3489C27.2157 28.4695 27.0953 28.5559 26.9564 28.5905C26.8174 28.6251 26.6705 28.6053 26.5457 28.5351C25.5486 27.9643 24.0958 26.9941 23.0521 25.9504C22.0084 24.9067 21.097 23.52 20.5849 22.5865C20.5214 22.4679 20.5031 22.3304 20.5332 22.1993C20.5634 22.0682 20.6401 21.9525 20.7491 21.8736L23.0128 20.1929C23.3359 19.912 23.5444 19.5221 23.5986 19.0974C23.6528 18.6727 23.549 18.243 23.3068 17.8899C22.2092 16.2827 20.9304 14.2394 19.0757 12.8845C18.8363 12.7111 18.556 12.6029 18.2621 12.5707C17.9683 12.5385 17.6712 12.5833 17.3999 12.7008C15.1459 13.6661 13.1957 16.1406 13.2888 18.6861C13.35 20.357 14.0042 25.088 18.9581 30.0443Z" fill="#272727"/>
</svg>
